<svg xmlns="http://www.w3.org/2000/svg" xmlns:xlink="http://www.w3.org/1999/xlink" viewBox="0 0 1299 447">
  <defs>
    <clipPath id="clip-path">
      <rect x="13" width="1289" height="443" style="fill: none"/>
    </clipPath>
    <linearGradient id="Degradado_sin_nombre_7" data-name="Degradado sin nombre 7" x1="2677.05" y1="-314.85" x2="2059.07" y2="-258" gradientTransform="matrix(-1.13, 0.35, 0.07, 1.27, 3826.85, -192.47)" gradientUnits="userSpaceOnUse">
      <stop offset="0.1" stop-color="#6ecbe4"/>
      <stop offset="0.89" stop-color="#fff"/>
    </linearGradient>
    <linearGradient id="Degradado_sin_nombre_7-2" x1="1105.86" y1="-170.79" x2="453.1" y2="-110.73" gradientTransform="matrix(1, 0.19, -0.42, 1.29, -672.8, 64.62)" xlink:href="#Degradado_sin_nombre_7"/>
    <linearGradient id="Degradado_sin_nombre_7-3" x1="1495.38" y1="-784.08" x2="1332.81" y2="-534.72" gradientTransform="matrix(1.86, -0.03, -0.03, 1.81, -1625.04, 1360.85)" xlink:href="#Degradado_sin_nombre_7"/>
    <linearGradient id="Degradado_sin_nombre_7-4" x1="452.18" y1="-161.99" x2="746.33" y2="248.59" gradientTransform="matrix(1, 0, 0, 1, 0, 0)" xlink:href="#Degradado_sin_nombre_7"/>
  </defs>
  <title>flor-aqua</title>
  <g style="isolation: isolate">
    <g id="Capa_1" data-name="Capa 1">
      <g style="clip-path: url(#clip-path)">
        <g>
          <g style="opacity: 0.1;mix-blend-mode: multiply">
            <path d="M967.69,294.79c-2,1.36-2.92,1.73-3.08,1.32C966.6,294.7,967.83,294,967.69,294.79Z" style="fill: url(#Degradado_sin_nombre_7)"/>
            <path d="M184.8-16.35c-1.75-3.42-5.3,12.25-7.14,16.76l.42-3.23c.23-1.62.45-3.24.45-3.24-1.45,1.26-1.81,6.32-2,11.53-.17,4.29-.25,8.66-1.06,11.3l-1.12-4.14s.12,1.82.25,3.63l.3,3.61.12-.51c.28,1.71.86,5.13,1.53,8.51.92,4.78-.18,3.92-.18,3.92-1.08-.27,0,9-.68,6,.38,4.92.79,9.28-1.42,3.37,3,11.32,6,22.6,10.52,33.2a85.2,85.2,0,0,0,3.78,7.74c.69,1.26,1.38,2.5,2.18,3.69l1.15,1.8,1.17,1.6c1.57,2.11,3.05,4.32,4.67,6.39l5,6.1a89.65,89.65,0,0,0,23.72,19.79,69.33,69.33,0,0,0,29.07,8.68c2.6.73.74,1.58-.53,2.15,4.14-.9,5.76-.22,6.93.71s1.79,2.35,3.82,2.77c0,0,.76-.17,1.9-.56s2.63-.87,4.13-1.36c3-.94,5.93-2.14,5.93-2.14,4.25,1.27.54,2.67.71,3.55,10.54.31,21.15-1.79,31-4.07s19.17-4.75,27.58-5.45c5.34-2.85-1.27-3.19,5.75-5.42-4.76,3.38.38,2.7,5.93,1.64,5.16-1,10.65-2.2,9-.49,7.07-6.1,24.51-7.22,21.43-12.87,8.34-2.52,6.94,1,4.55,2.25,9.64-2.68,17.44-4.59,25.24-4.21,2.64-1.34,13.57-3.33,24.84-5.06s22.85-3.37,27.38-6.07c-3.08,1.84-3,2.25-1.53,2.35s4.39-.17,7,.52l-2.64,1.52c-1.32.76-2.64,1.6-2.64,1.6l1.91-.17,4.16-.23c3-.21,6-.2,6-.2,2.38.32,3.08.2,3.11,0,2.06-.1-.14-1.76,5.13-2.19a16.84,16.84,0,0,1,7.52,1.54c1.5.71,2.43,1.73,4.32,2.81l-1.3.23,2.56.56c.64.13,1.26.31,1.73.44l.78.22c1.86.41-1.15-1.16-3.23-2.36s-3-2.6,3.56-2.2c0,.42,1.5,2,3.48,3.27s4.35,2.48,6.33,2c-6.17-1.68-4.75-3.38-2.13-3.59,0,0,2.25.52,4.41,1.25l3,1,1.34.5-2.15,1.21-2.14,1.29c12.07,4.1,23.71,10.55,35.7,18s24.31,15.34,37.14,22.75c.63-1.56,5.19,1,9.67,3.09s8.87,3.74,8.78,1l-1.22-.09c-6.19-3.71,3.57-2.46,8.62.42-6.25-1.18,7.84,9.16-6,3.47l4.74,3.52c2.39,1.74,4.82,3.41,4.83,3.4.48,2.8,2.54,5,5.65,6.62a35.14,35.14,0,0,0,5.31,2.29c2,.65,4.21,1.21,6.51,1.77l3.51.81c1.2.26,2.44.45,3.67.68,2.47.43,5,.94,7.43,1.42a87.53,87.53,0,0,1,14.1,3.52c-1.16-.59-1.33-1.13-1.41-1.44a51.93,51.93,0,0,0,5.89,1.89c2.06.46,4.19.76,6.3,1l3.18.32c1.05.08,2.12.08,3.18.11,2.09,0,4.14,0,6.09,0,3.92-.2,7.46-.59,10.22-.75s4.83-.42,5.74-.07l1.85-2.53c6.82,1.57,10.79,2.27,15.18,2a37.63,37.63,0,0,0,7.34-1,99,99,0,0,0,10.59-2.92c-.23-.34-2.22-.58.51-1.74a21.84,21.84,0,0,0,7.29.54,40.22,40.22,0,0,0,5.5-.92c2.15-.6,4.67-1.45,7.64-2.59l-.56-.58s1.17-.33,2.92-1l6.39-2.39c4.63-1.91,9.25-3.94,9.25-3.94-.75-3.55,7.17-6.12,15.77-10s17.77-9.34,18.79-14.68a16.49,16.49,0,0,0,4.44-1.76c1.83-1,4-2.35,6.14-3.77s4.36-3.07,6.4-4.51,3.85-2.82,5.27-3.84c-.11-.27.07-.83.77-1.88,4-1.27,8.27-5.82,12.2-10.8,1.93-2.54,3.87-5.1,5.62-7.55a56.63,56.63,0,0,1,5.06-6.33c4.47-4.07,3.51-1.25,2.5,1.66a46.83,46.83,0,0,1,6.25-8.61c2.42-2.93,5.27-5.7,7.83-8.44,5.23-5.37,9.81-10.17,10.69-12.39,4.85-7.76,0-4.32.25-7.24,3.9-5.39,4.72-4.12,5.57-3.52s1.68.45,5.43-8c-1.34,1.65-3.56,4.85-3.07,3.35,1.64-3.08,2.44-8.32,3.37-13.3s1.87-9.81,4.08-12.43c0,0-.25,1.13-.55,2.23l-.58,2.23A37.52,37.52,0,0,0,897.92,25c1.26-3.12,2.19-6.37,3.05-9.26.43-1.44.84-2.81,1.26-4a32.63,32.63,0,0,1,1.18-3.28c.82-1.85,1.75-3,2.93-3.06l1.34,1.79C909.31,2,910.2-1.07,911-3.09a32.25,32.25,0,0,1,1.84-4.08,30.7,30.7,0,0,0,1.83-4.13,88.94,88.94,0,0,0,3-10.38l-.41.16a71.1,71.1,0,0,0,3.19-10.73,6,6,0,0,1,3.39-3.82ZM477.6,99.28l-2,.61C474.55,99.17,473.48,98.52,477.6,99.28Z" style="fill: url(#Degradado_sin_nombre_7-2)"/>
          </g>
          <path d="M710.3-30.89c.63-3.63-11.43,6.87-15.55,9.45L697-23.76l2.28-2.32c-1.89.22-5.16,4-8.41,8-2.67,3.3-5.32,6.71-7.52,8.37l1.57-3.87s-1,1.5-1.95,3l-1.9,3,.4-.34c-.79,1.5-2.36,4.51-3.83,7.54-2.1,4.25-2.46,3-2.46,3-.69-.79-5.36,7.1-4.06,4.34-2.6,4.08-4.86,7.74-3.11,1.91-4.36,10.5-8.65,21-11.34,31.78-.65,2.7-1.22,5.4-1.6,8.11a40.19,40.19,0,0,0-.45,4.07l-.16,2,0,1.88c0,2.5-.15,5-.09,7.52l.32,7.46a79.7,79.7,0,0,0,7,28.17,61.42,61.42,0,0,0,17.79,22.25c1.63,1.94-.35,1.64-1.69,1.41,3.8,1.49,4.68,2.88,5,4.23s0,2.81,1.37,4.22c0,0,.7.26,1.84.55l4.06,1.12c2.9.84,5.93,1.45,5.93,1.45,2.6,3.26-1.15,2.39-1.54,3.18,8.13,5.82,17.73,9.78,26.88,13.22s17.93,6.4,25,10.3c5.9.57.88-3.2,7.74-1.24-5.75.15-1.3,2.33,3.7,4.43,4.64,2,9.7,3.9,7.39,4.39,9.19-1.07,23.6,7.27,24.52,1.18,8.07,2.43,4.85,4.5,2.25,4.18,9.19,3,16.46,5.62,22.4,10.05,2.87.34,12.67,4.55,22.58,9.15s20,9.44,25.18,9.7c-3.52-.18-3.71.19-2.6,1.05s3.56,2.19,5.19,4.1c0,0-1.5-.09-3-.2s-3-.13-3-.13l1.61.87,3.41,2c2.52,1.44,4.86,3,4.86,3,1.68,1.51,2.3,1.79,2.48,1.61,1.68,1,.94-1.47,5.34,1a15.2,15.2,0,0,1,5,5.19c.76,1.35.88,2.65,1.74,4.51l-1.17-.5,1.69,1.79c.43.44.81.91,1.1,1.26l.49.59c1.23,1.31-.22-1.53-1.15-3.58s-.85-3.64,4.11.16c-.27.31,0,2.35.8,4.41s2,4.26,3.81,4.95c-3.88-4.59-1.75-5.19.45-4,0,0,1.46,1.59,2.72,3.31l1.81,2.34.76,1.1-2.41-.18-2.46-.12c7.1,9.63,12.46,20.89,17.52,33.1s10.1,25,15.83,37.63c1.43-.91,3.5,3.53,5.8,7.56s4.78,7.65,6.36,5.39l-.91-.71c-2.68-6.21,4.27,0,6.55,4.89-4.22-4.24.76,11.38-6.81-.45,0,0,.84,2.64,1.67,5.29s1.78,5.24,1.78,5.24c-1.26,2.46-.93,5.27.54,8.22a32.9,32.9,0,0,0,2.83,4.62c1.21,1.57,2.62,3.18,4.1,4.84l2.29,2.5c.79.84,1.66,1.64,2.49,2.48,1.69,1.65,3.35,3.36,5,5.05a77.32,77.32,0,0,1,9,10.25c-.56-1.08-.38-1.61-.25-1.88a46.54,46.54,0,0,0,3.52,4.61c1.35,1.44,2.85,2.81,4.36,4.14l2.31,1.94c.79.62,1.63,1.19,2.45,1.77,1.64,1.12,3.26,2.2,4.82,3.2,3.21,1.91,6.24,3.48,8.51,4.82s4,2.22,4.57,3l3-1c4.44,4.85,7.16,7.5,10.77,9.62a35.35,35.35,0,0,0,6.39,3.09,96.1,96.1,0,0,0,10.08,3.29c0-.39-1.4-1.63,1.43-1.1a19.55,19.55,0,0,0,5.43,4.28,37.13,37.13,0,0,0,4.88,2.19c2.06.66,4.54,1.33,7.56,2l-.1-.76s1.12.36,2.9.75l6.45,1.49c4.78.94,9.63,1.79,9.63,1.79,1.51-3.2,9.26-1,18.36.42s19.54,2,23.51-1.64a16.3,16.3,0,0,0,4.54,1c2.05.16,4.51.24,7.07.27s5.25-.12,7.72-.17,4.7-.19,6.42-.24c.07-.27.54-.62,1.72-1.08,3.92,1.13,10-.21,16-2.06,3-1,6.07-2,8.9-3a61.25,61.25,0,0,1,7.73-2.32c5.93-.85,3.51.87,1,2.63a51.12,51.12,0,0,1,10-3.49c3.65-1,7.53-1.7,11.17-2.51,7.3-1.48,13.75-2.83,15.75-4.12,8.42-3.57,2.54-3.43,4.48-5.59,6.27-2.19,6.17-.75,6.47.17s1.07,1.24,9-3.45c-2,.6-5.67,1.94-4.4,1,3.12-1.56,6.85-5.28,10.53-8.71s7.27-6.76,10.57-7.65c0,0-.86.75-1.76,1.46l-1.77,1.45a39.41,39.41,0,0,0,8.71-4.49c2.84-1.8,5.49-3.86,7.87-5.69,1.2-.92,2.32-1.77,3.38-2.52a33.77,33.77,0,0,1,2.87-2c1.75-1,3.15-1.45,4.12-.87v2.13c4.31-3.17,6.84-5.14,8.65-6.32a34.33,34.33,0,0,1,3.86-2.24,33.83,33.83,0,0,0,3.89-2.3,95.58,95.58,0,0,0,8.51-6.6l-.42-.09a75.23,75.23,0,0,0,8.86-6.79c2.34-1.83.55-351.1.55-351.1ZM872.78,215.42l-1.94-.58C870.45,213.72,870,212.64,872.78,215.42Z" style="opacity: 0.4;mix-blend-mode: multiply;fill: url(#Degradado_sin_nombre_7-3)"/>
          <path d="M1043.66-81.23c-.6,3.69.08-7.19-1.28-6.5,0,0-1.34,1.35-.5-4.38.62-4.06,1.11-8.14,1.35-10.17l.19.54s.07-2.1.13-4.19l.08-4.21-1.14,5.08c-1.21-2.71-1.62-7.64-2.14-12.44-.62-5.83-1.43-11.44-3.36-12.35l.8,3.5c.38,1.76.77,3.52.77,3.52-2.67-4.48-8.26-21-10.25-16.52,0,0-603.61-19.63-946.06-4h0l-2.82.13c-2.75-.32-6.55-1-6.92-.13-1.19,3-6.62,3.84-8,8.18-.61,2.09-1.26,4.29-1.93,6.59-.49,1.78-1,3.62-1.5,5.55-.87,3.87-1.88,8-2.68,12.27C55.05-93.6,53.13-73.88,51-58.2c3.4-3,2.43.64,1.59,5.18s-1.95,10.08.66,10.62c-1.48,1.85-2.18,6.29-3.72,1.23a180.52,180.52,0,0,1,1.06,19.51c.33,5.41.79,10.24,3.74,15.42-1.28,2-2.72-3.11-3.4-1.37.51,1.25,2,4.89,1.35,6.69s-1.6-2.15-2.63-4.6C50.79,2.69,53,7,55.15,9.21s4.62,2.51,6.92,2.66a31.06,31.06,0,0,0,.71,10,20.78,20.78,0,0,0,4.29,7.44c-.39,1.56-.65,3.59-1.17,4s-1.41-.7-2.81-5.55c.51,2.79,2.14,11.33,4.41,19.06s5.11,14.58,6.87,14.27c-.35,2,2.43,7.52,3.34,8.76,2.08,6,3.4,9.18,4.61,12.38S85,88.53,87.68,94.15l-.89-3.39c3,1.35,4.23,3.58,5.45,6.55s2.2,6.78,4.8,11l-.52,0A75.44,75.44,0,0,0,101.07,119a26.39,26.39,0,0,0,2.61,4,28.22,28.22,0,0,1,2.61,4c1.15,2,2.49,5.22,4.91,10.43l1.58-2.49c1.51-.34,2.76.64,3.93,2.46a24.76,24.76,0,0,1,1.74,3.29c.61,1.25,1.23,2.65,1.88,4.14a89.23,89.23,0,0,0,4.51,9.43,31.38,31.38,0,0,0,6.34,8.31s-.45-1.16-.89-2.32-.86-2.34-.86-2.34c3,2.2,4.54,7.31,6,12.67s2.92,11,5.22,13.9c.72,1.52-2.33-1.33-4.14-2.74,5.35,8.29,6.44,8.17,7.46,7.2s2-2.7,7.32,2.06c.55,3.22-5.89,1,.82,8.12,1.27,2.2,7.44,6,14.46,10.33,3.43,2.22,7.24,4.37,10.53,6.84a40.58,40.58,0,0,1,8.55,7.6c-1.5-2.95-2.91-5.81,3.06-2.75a49.84,49.84,0,0,1,6.86,5.42c2.4,2.17,5,4.4,7.67,6.61,5.35,4.28,11.06,8,16.26,8,1,1,1.22,1.53,1.11,1.87,1.86.66,4.27,1.6,7,2.52s5.55,2.07,8.43,2.9,5.68,1.62,8.07,2.14a19.57,19.57,0,0,0,5.76.46c1.68,5.69,13.77,8.6,24.92,10.13s21.44,1.63,20.73,5.9c0,0,6,.7,12,1.27l8.3.5c2.26.17,3.77.14,3.77.14l-.68.85c3.87.27,7.12.35,9.89.29a56.78,56.78,0,0,0,7.06-.86,35.69,35.69,0,0,0,9.23-3.13c3.55.36,1,1.32.77,1.78a128.17,128.17,0,0,0,13.66-.35,55.4,55.4,0,0,0,9.4-1.38c5.6-1.23,10.6-3.4,19.15-7.54l2.54,2.22c1.13-.7,3.71-1.28,7.29-1.89,3.52-.78,8.05-1.57,13.05-2.7,2.48-.62,5.08-1.31,7.74-2.07,1.33-.39,2.69-.76,4-1.21l4-1.47c2.67-1,5.35-2.12,7.93-3.35s5-2.69,7.35-4.18c-.06.37-.25,1.05-1.68,2.12a150.25,150.25,0,0,1,17.68-8.87c3.11-1.4,6.23-2.83,9.34-4.18,1.55-.69,3.11-1.33,4.61-2l4.41-2.14c2.88-1.42,5.65-2.82,8.16-4.25a66.07,66.07,0,0,0,6.59-4.43c3.83-2.95,6.29-6.12,6.72-9.46,0,0,3-2.72,5.89-5.52l5.78-5.63c-17.22,11.25-.05-5.35-7.9-1.84,6.21-5,18.53-9.81,10.93-3.46l-1.55.51c.08,3.2,5.53-.18,11.09-4.1s11.17-8.41,12.07-6.85c6.82-5.54,5.57-9,16.43-15s11.63-12.08,20-19.21c4.23-3.61,4.45-10.57,15.14-16.84,12.91-7.56,18.22-2.9,31-14.85,0,0,5.78-5.81,4.38-6.17l-2.82-.62,1.67-1,3.73-2.12c2.7-1.58,5.51-2.93,5.51-2.93,3.36-.68,5.28.76-2.45,4.8,2.55-.16,5.53-2.24,7.91-4.48s4.25-4.44,4.18-4.9c8.35-2.73,7.21-.88,4.69,1.25s-6.28,4.91-3.94,3.8l1-.52c.59-.31,1.37-.73,2.18-1.09l3.2-1.53-1.66.19c2.33-1.88,3.44-3.36,5.29-4.68a28.76,28.76,0,0,1,9.45-4.35c6.72-1.33,4.06,1.3,6.67.7.07.28,1,.17,4-1,0,0,3.78-1,7.66-1.85l5.29-1.19,2.44-.47s-1.73-.49-3.46-.89l-3.46-.8c3.23-1.68,7-2.39,8.82-3S688.92,84,684.88,83c5.94,1.49,20.75-.76,35.22-2.6s28.48-3.47,31.92-2.86c9.9-3.13,19.94-3.67,32.39-4-3.13-.53-5.16-4.08,5.62-4.11-3.53,7.46,18.71,2.69,28.13,7.16C816,75.21,823,74.72,829.65,74c7.12-.72,13.69-1.73,7.41-3.91,9.08.1.7,2.77,7.68,4.15,10.74-2.12,22.69-2.53,35.44-3.37s26.35-2.14,39.72-6.14c.16-1-4.66-1.35.66-4.26,0,0,3.82.34,7.68.36l5.35.11c1.47,0,2.45,0,2.45,0,2.55-1.18,3.27-3,4.66-4.47s3.43-2.78,8.76-3.2c-1.65-.2-4.07-.53-.82-2.26A120,120,0,0,0,985,31.13,153.49,153.49,0,0,0,1013.74.51l5.91-8.64c1.92-2.91,3.65-5.92,5.5-8.86l1.37-2.22,1.34-2.44c.93-1.61,1.73-3.27,2.52-4.93,1.61-3.31,3-6.68,4.25-10.07,5-13.58,8.09-27.4,11.07-41.25C1043.31-70.44,1043.52-75.53,1043.66-81.23ZM67.44,22.38c-.73-1.88-1.32-3.79-1.81-5.22l-.8-2.38c.19-2,1.72-.66,3.71,1.57-.51-1-1-1.94-1.42-2.67.06-2.31.52-3.29,1.21-3.43q.73,3.83,1.56,7.63l-1.35-1.53c.55,1.06,1.14,2.23,1.76,3.43.26,1.17.53,2.34.8,3.5-.43,2.69-.79,5-.88,6.61ZM666.81,93h-2.59C669.4,90.72,668.08,91.82,666.81,93Z" style="opacity: 0.2;mix-blend-mode: multiply;fill: url(#Degradado_sin_nombre_7-4)"/>
        </g>
      </g>
    </g>
  </g>
</svg>
