<svg xmlns="http://www.w3.org/2000/svg" xmlns:xlink="http://www.w3.org/1999/xlink" viewBox="0 0 1316 452">
  <defs>
    <clipPath id="clip-path">
      <rect x="-4" y="-4" width="1313" height="456" style="fill: none"/>
    </clipPath>
    <linearGradient id="linear-gradient" x1="-4.87" y1="400.06" x2="-381.44" y2="434.7" gradientTransform="translate(19.98 -57.05)" gradientUnits="userSpaceOnUse">
      <stop offset="0" stop-color="#a2c8e4"/>
      <stop offset="1" stop-color="#d9e6f1"/>
    </linearGradient>
    <clipPath id="clip-path-2">
      <rect x="-1.96" y="11.11" width="1289" height="443" transform="translate(1285.09 465.22) rotate(180)" style="fill: none"/>
    </clipPath>
    <linearGradient id="Degradado_sin_nombre_7" data-name="Degradado sin nombre 7" x1="813.59" y1="-3712.06" x2="195.61" y2="-3655.2" gradientTransform="matrix(1.13, -0.35, -0.07, -1.27, -653.83, -4311.15)" gradientUnits="userSpaceOnUse">
      <stop offset="0.1" stop-color="#6ecbe4"/>
      <stop offset="0.89" stop-color="#fff"/>
    </linearGradient>
    <linearGradient id="Degradado_sin_nombre_7-2" x1="5908.63" y1="-4986.13" x2="5255.86" y2="-4926.07" gradientTransform="matrix(-1, -0.19, 0.42, -1.29, 8813.58, -4924.17)" xlink:href="#Degradado_sin_nombre_7"/>
    <linearGradient id="Degradado_sin_nombre_7-3" x1="5970.68" y1="-4102.64" x2="5808.11" y2="-3853.28" gradientTransform="matrix(-1.86, 0.03, 0.03, -1.81, 11350.46, -7067.2)" xlink:href="#Degradado_sin_nombre_7"/>
    <linearGradient id="Degradado_sin_nombre_7-4" x1="6995.22" y1="-5680.88" x2="7289.37" y2="-5270.31" gradientTransform="translate(7843.09 -5064.78) rotate(180)" xlink:href="#Degradado_sin_nombre_7"/>
  </defs>
  <title>flor-aqua</title>
  <g style="isolation: isolate">
    <g id="Capa_1" data-name="Capa 1">
      <g style="clip-path: url(#clip-path)">
        <g>
          <path d="M205.73,486.36c-.36,2.33,7.12-4.3,9.68-5.92L214,481.92c-.71.73-1.41,1.47-1.41,1.47,1.19-.12,3.2-2.54,5.2-5.09a34.79,34.79,0,0,1,4.64-5.31l-.94,2.48,1.19-1.92,1.16-1.92-.25.22c.49-1,1.44-2.88,2.33-4.82,1.27-2.72,1.51-1.9,1.51-1.9.45.51,3.3-4.52,2.51-2.76,1.59-2.6,3-4.94,1.94-1.19,2.62-6.74,5.21-13.47,6.77-20.4a49.17,49.17,0,0,0,.92-5.22c.11-.87.21-1.74.24-2.62l.08-1.31v-1.21c0-1.62,0-3.25,0-4.86l-.29-4.82a54.1,54.1,0,0,0-4.73-18.3,41.47,41.47,0,0,0-11.46-14.59c-1-1.28.21-1.06,1.05-.89-2.4-1-3-1.92-3.22-2.8s-.05-1.82-.92-2.74a11.52,11.52,0,0,0-1.16-.38c-.7-.21-1.63-.5-2.57-.77-1.84-.59-3.75-1-3.75-1-1.68-2.15.7-1.54.93-2-5.18-3.87-11.28-6.54-17.07-8.88s-11.36-4.36-15.85-7c-3.72-.44-.51,2.06-4.86.71,3.62,0,.8-1.49-2.37-2.91-2.94-1.34-6.16-2.64-4.71-2.93-5.77.58-14.94-5-15.45-1.07-5.11-1.67-3.11-3-1.47-2.73-5.82-2.05-10.43-3.83-14.21-6.77-1.82-.25-8-3.1-14.33-6.19s-12.71-6.35-16-6.59c2.21.16,2.33-.07,1.62-.64a18.69,18.69,0,0,1-3.31-2.72l1.88.17c.93.08,1.9.12,1.9.12l-1-.58-2.17-1.35c-1.6-1-3.1-2-3.1-2-1.07-1-1.47-1.18-1.58-1.07-1.07-.67-.57.94-3.37-.7a10.12,10.12,0,0,1-3.22-3.42c-.5-.88-.59-1.72-1.15-2.93l.73.33-1.07-1.18c-.28-.29-.53-.59-.72-.83l-.31-.38c-.79-.86.16,1,.77,2.33s.57,2.36-2.59-.16a5.64,5.64,0,0,0-.56-2.86,5.17,5.17,0,0,0-2.45-3.24c2.49,3,1.16,3.37-.24,2.55,0,0-.94-1.05-1.75-2.18-.43-.55-.85-1.11-1.17-1.53l-.49-.72,1.52.15,1.55.1c-4.58-6.3-8.09-13.65-11.41-21.6S69.13,272.26,65.38,264c-.89.57-2.24-2.33-3.74-5s-3.09-5-4.07-3.56l.59.47c1.76,4-2.69,0-4.18-3.25,2.7,2.8-.61-7.36,4.29.38,0,0-.56-1.72-1.11-3.43S56,246.26,56,246.26c.76-1.58.52-3.4-.44-5.32a22.33,22.33,0,0,0-1.83-3c-.78-1-1.69-2.09-2.64-3.18L49.6,233.1c-.51-.56-1.06-1.09-1.59-1.64-1.09-1.08-2.15-2.21-3.22-3.32A53.63,53.63,0,0,1,39,221.4c.37.71.26,1,.18,1.22a30.15,30.15,0,0,0-2.27-3c-.87-.95-1.83-1.86-2.79-2.73l-1.48-1.29c-.5-.41-1-.79-1.56-1.17C30,213.66,29,213,28,212.28c-2-1.27-4-2.32-5.41-3.22a9.89,9.89,0,0,1-2.92-2l-1.85.62c-2.85-3.19-4.59-4.93-6.89-6.35a23.1,23.1,0,0,0-4.06-2.07A62.93,62.93,0,0,0,.47,197c0,.25.91,1.08-.89.7a12.9,12.9,0,0,0-3.46-2.84A24.71,24.71,0,0,0-7,193.4c-1.3-.45-2.87-.91-4.78-1.38l.07.49s-.71-.25-1.83-.52l-4.09-1c-3-.67-6.08-1.28-6.08-1.28-.91,2.05-5.82.56-11.57-.5s-12.32-1.56-14.78.77a10.1,10.1,0,0,0-2.87-.68c-1.29-.13-2.84-.21-4.46-.27s-3.3,0-4.85,0-3,.06-4,.07c0,.18-.34.4-1.08.68-2.48-.78-6.26,0-10,1.13-1.89.6-3.79,1.2-5.57,1.82a34,34,0,0,1-4.84,1.4c-3.73.48-2.22-.6-.65-1.71a29.93,29.93,0,0,1-6.27,2.13c-2.29.62-4.73,1-7,1.49-4.57.86-8.62,1.65-9.87,2.46-5.26,2.2-1.56,2.18-2.75,3.55-3.93,1.34-3.88.42-4.08-.18s-.69-.82-5.64,2.11c1.27-.36,3.55-1.18,2.76-.6-2,1-4.25,3.32-6.53,5.5s-4.5,4.27-6.57,4.81c0,0,.54-.48,1.09-.93l1.1-.91a23.51,23.51,0,0,0-5.43,2.79c-1.77,1.13-3.41,2.43-4.9,3.58-.74.58-1.44,1.12-2.09,1.59s-1.25.9-1.79,1.22c-1.09.65-2,.9-2.58.52l0-1.38c-2.68,2-4.25,3.23-5.38,4a22.29,22.29,0,0,1-2.4,1.4,19.76,19.76,0,0,0-2.42,1.43,56.79,56.79,0,0,0-5.29,4.16l.27.06a45.58,45.58,0,0,0-5.51,4.28c-1.45,1.16,2.76,180.2,2.76,180.2ZM100.6,325.18l1.23.4C102.09,326.31,102.39,327,100.6,325.18Z" style="opacity: 0.1;mix-blend-mode: overlay;fill: url(#linear-gradient)"/>
          <g style="clip-path: url(#clip-path-2)">
            <g>
              <g style="opacity: 0.1;mix-blend-mode: multiply">
                <path d="M332.35,159.32c2-1.36,2.92-1.73,3.08-1.32C333.44,159.41,332.21,160.06,332.35,159.32Z" style="fill: url(#Degradado_sin_nombre_7)"/>
                <path d="M1115.24,470.46c1.76,3.42,5.3-12.25,7.15-16.76,0,0-.22,1.61-.43,3.23s-.45,3.24-.45,3.24c1.45-1.26,1.81-6.32,2-11.53.18-4.29.26-8.66,1.06-11.3l1.13,4.14-.26-3.64-.3-3.6-.12.51c-.28-1.71-.86-5.14-1.53-8.51-.92-4.78.18-3.92.18-3.92,1.08.27,0-9,.68-5.95-.38-4.92-.78-9.28,1.42-3.38-3-11.31-6-22.59-10.52-33.19a83.86,83.86,0,0,0-3.77-7.74c-.69-1.26-1.39-2.51-2.19-3.69l-1.15-1.8L1107,365c-1.58-2.11-3.06-4.32-4.68-6.39l-5-6.1a89.46,89.46,0,0,0-23.72-19.79,69.14,69.14,0,0,0-29.06-8.68c-2.6-.73-.75-1.58.53-2.15-4.15.89-5.76.22-6.94-.71s-1.79-2.35-3.82-2.78c0,0-.75.18-1.89.57l-4.14,1.36c-3,.94-5.92,2.14-5.92,2.14-4.26-1.28-.55-2.67-.72-3.55-10.53-.31-21.14,1.79-31,4.06s-19.17,4.76-27.58,5.46c-5.34,2.85,1.27,3.19-5.75,5.42,4.76-3.38-.37-2.7-5.92-1.64-5.16.95-10.65,2.2-9,.48-7.08,6.11-24.52,7.23-21.44,12.88-8.34,2.52-6.94-1.05-4.54-2.25-9.65,2.68-17.44,4.59-25.25,4.21-2.64,1.34-13.57,3.33-24.84,5.06s-22.85,3.37-27.38,6.07c3.08-1.84,3-2.25,1.53-2.35s-4.39.16-7-.52l2.65-1.53c1.31-.75,2.63-1.59,2.63-1.59l-1.91.17-4.15.22c-3,.22-6,.21-6,.21-2.37-.32-3.07-.2-3.11.05-2,.1.14,1.76-5.13,2.19a17,17,0,0,1-7.52-1.54c-1.5-.71-2.42-1.73-4.32-2.81l1.3-.23-2.55-.57c-.65-.12-1.27-.3-1.74-.43s-.78-.22-.78-.22c-1.86-.41,1.15,1.16,3.23,2.36s3,2.59-3.56,2.19c0-.41-1.49-2-3.47-3.26s-4.35-2.48-6.34-2c6.17,1.68,4.76,3.38,2.13,3.59,0,0-2.24-.52-4.4-1.25l-3-.95-1.33-.5,2.14-1.21,2.14-1.29c-12.07-4.1-23.71-10.55-35.7-18S730.35,314,717.52,306.63c-.63,1.56-5.19-1-9.67-3.1s-8.86-3.73-8.77-.94l1.22.09c6.18,3.71-3.58,2.45-8.63-.42,6.25,1.18-7.83-9.16,6-3.47L693,295.27c-2.38-1.74-4.82-3.41-4.82-3.41-.49-2.79-2.55-5-5.65-6.62a37.79,37.79,0,0,0-5.31-2.29c-2-.64-4.22-1.2-6.51-1.76l-3.52-.81c-1.2-.26-2.44-.45-3.66-.68-2.48-.43-5-.94-7.43-1.42A87.92,87.92,0,0,1,642,274.76c1.17.59,1.34,1.13,1.41,1.44a51.3,51.3,0,0,0-5.89-1.89c-2.05-.46-4.18-.76-6.3-1L628,273c-1-.07-2.12-.08-3.17-.1-2.1,0-4.14,0-6.09,0-3.93.21-7.47.6-10.23.75-2.8.31-4.82.42-5.74.08l-1.85,2.53c-6.81-1.57-10.79-2.27-15.18-2a37.64,37.64,0,0,0-7.34,1,102.53,102.53,0,0,0-10.59,2.93c.23.34,2.22.58-.51,1.74a21.58,21.58,0,0,0-7.29-.54,40.47,40.47,0,0,0-5.5.92c-2.15.6-4.67,1.44-7.64,2.59l.56.58s-1.17.33-2.91,1l-6.4,2.4c-4.62,1.91-9.25,3.94-9.25,3.94.75,3.55-7.16,6.12-15.76,10s-17.77,9.35-18.8,14.69a16,16,0,0,0-4.43,1.76c-1.84,1-4,2.35-6.15,3.77s-4.35,3.07-6.4,4.51-3.85,2.82-5.27,3.83c.11.28-.07.84-.77,1.89-4,1.27-8.26,5.82-12.19,10.8-1.94,2.54-3.87,5.1-5.63,7.55A56.63,56.63,0,0,1,448.4,356c-4.47,4.07-3.51,1.25-2.49-1.66a47.38,47.38,0,0,1-6.26,8.61c-2.42,2.93-5.27,5.7-7.83,8.44-5.22,5.37-9.81,10.17-10.69,12.38-4.85,7.77,0,4.32-.25,7.24-3.9,5.4-4.72,4.13-5.56,3.53s-1.69-.45-5.43,8c1.33-1.65,3.55-4.84,3.06-3.34-1.63,3.07-2.44,8.32-3.37,13.3s-1.87,9.81-4.08,12.42c0,0,.25-1.12.55-2.22l.58-2.23a37.52,37.52,0,0,0-4.51,8.71c-1.26,3.12-2.18,6.37-3,9.26-.44,1.44-.85,2.8-1.26,4s-.78,2.35-1.19,3.28c-.82,1.85-1.74,3-2.92,3.06l-1.34-1.8c-1.63,5.1-2.52,8.2-3.31,10.22a32.25,32.25,0,0,1-1.84,4.08,32.33,32.33,0,0,0-1.82,4.13,88.4,88.4,0,0,0-3,10.38l.41-.16a72.29,72.29,0,0,0-3.19,10.73,6,6,0,0,1-3.39,3.82ZM822.45,354.83l2-.61C825.49,354.94,826.56,355.59,822.45,354.83Z" style="fill: url(#Degradado_sin_nombre_7-2)"/>
              </g>
              <path d="M589.75,485c-.64,3.63,11.42-6.87,15.55-9.45l-2.25,2.32-2.27,2.32c1.89-.22,5.16-4,8.4-8,2.68-3.29,5.32-6.7,7.53-8.36l-1.57,3.87,2-3,1.89-3-.4.33c.79-1.49,2.36-4.5,3.83-7.53,2.1-4.25,2.46-3,2.46-3,.7.78,5.37-7.1,4.06-4.34,2.6-4.09,4.86-7.75,3.11-1.91,4.36-10.51,8.65-21,11.34-31.78.65-2.7,1.22-5.4,1.6-8.11.2-1.36.39-2.71.46-4.07l.16-2,0-1.88c0-2.5.15-5,.1-7.52l-.32-7.46a79.71,79.71,0,0,0-7-28.17,61.42,61.42,0,0,0-17.79-22.25c-1.62-1.95.35-1.64,1.69-1.42-3.79-1.48-4.68-2.87-5-4.23s0-2.8-1.38-4.21c0,0-.7-.26-1.83-.56L610,320.41c-2.9-.84-5.93-1.45-5.93-1.45-2.6-3.26,1.15-2.4,1.54-3.19-8.13-5.82-17.73-9.77-26.87-13.21s-17.93-6.4-25-10.3c-5.9-.58-.88,3.19-7.74,1.24,5.75-.15,1.31-2.33-3.7-4.44-4.63-2-9.7-3.89-7.39-4.38-9.19,1.07-23.6-7.28-24.51-1.19-8.07-2.42-4.86-4.49-2.26-4.17-9.19-3-16.46-5.62-22.39-10.05-2.88-.34-12.68-4.55-22.59-9.15s-20-9.44-25.17-9.7c3.51.18,3.71-.19,2.6-1s-3.57-2.2-5.19-4.1l3,.19c1.48.1,3,.14,3,.14l-1.6-.87-3.41-2c-2.52-1.44-4.86-3-4.86-3-1.69-1.5-2.31-1.78-2.49-1.6-1.68-1-.93,1.46-5.34-1a15,15,0,0,1-5-5.19c-.76-1.35-.89-2.65-1.75-4.51l1.17.5-1.68-1.79c-.43-.44-.82-.91-1.11-1.27l-.48-.58c-1.23-1.31.21,1.53,1.15,3.58s.84,3.64-4.12-.16c.28-.31,0-2.35-.8-4.41s-2-4.26-3.8-4.95c3.87,4.59,1.74,5.19-.45,4,0,0-1.47-1.59-2.73-3.31l-1.8-2.34-.76-1.1,2.4.18,2.46.12c-7.1-9.63-12.46-20.89-17.52-33.1s-10.1-25-15.83-37.63c-1.42.91-3.5-3.54-5.8-7.56s-4.78-7.65-6.36-5.39l.91.71c2.68,6.21-4.27,0-6.55-4.9,4.23,4.25-.76-11.38,6.81.46l-1.66-5.29c-.85-2.64-1.79-5.25-1.79-5.24,1.27-2.47.93-5.27-.54-8.22a32,32,0,0,0-2.83-4.62c-1.21-1.57-2.62-3.18-4.1-4.84l-2.29-2.5c-.79-.84-1.65-1.65-2.49-2.48-1.69-1.65-3.35-3.36-5-5a76.71,76.71,0,0,1-9-10.25c.57,1.08.38,1.6.26,1.88A48.24,48.24,0,0,0,329,77.18c-1.35-1.45-2.85-2.82-4.36-4.15l-2.31-1.93c-.79-.62-1.63-1.19-2.44-1.77-1.64-1.13-3.27-2.2-4.83-3.2-3.21-1.91-6.23-3.48-8.51-4.82s-4.05-2.22-4.56-3l-3,1c-4.44-4.85-7.17-7.5-10.77-9.62a35.14,35.14,0,0,0-6.4-3.09,96.1,96.1,0,0,0-10.08-3.29c0,.39,1.4,1.63-1.43,1.1a19.36,19.36,0,0,0-5.43-4.28A35.3,35.3,0,0,0,260.06,38c-2.05-.66-4.53-1.33-7.56-2l.1.75s-1.11-.36-2.89-.74l-6.46-1.49c-4.78-.94-9.63-1.79-9.63-1.79-1.51,3.2-9.26,1-18.36-.43s-19.54-2-23.51,1.65a15.52,15.52,0,0,0-4.53-1c-2.05-.16-4.52-.24-7.08-.28s-5.25.13-7.71.18-4.71.18-6.42.23c-.08.28-.55.63-1.73,1.09-3.92-1.13-10,.21-16,2.06-3,1-6.06,2-8.9,3a61.25,61.25,0,0,1-7.73,2.32c-5.93.84-3.51-.87-1-2.64a50.8,50.8,0,0,1-10,3.5c-3.64,1-7.53,1.7-11.17,2.51-7.29,1.47-13.75,2.83-15.75,4.12-8.42,3.56-2.54,3.42-4.48,5.58-6.27,2.2-6.16.76-6.47-.16s-1.07-1.25-9,3.45c2-.6,5.67-1.94,4.4-1C75,58.46,71.3,62.17,67.62,65.61s-7.27,6.76-10.56,7.65c0,0,.86-.75,1.75-1.46l1.77-1.46a40,40,0,0,0-8.7,4.5C49,76.63,46.39,78.7,44,80.53c-1.19.91-2.32,1.77-3.38,2.52s-2,1.44-2.87,2c-1.75,1-3.15,1.44-4.11.87V83.75c-4.3,3.17-6.83,5.14-8.65,6.32a33.46,33.46,0,0,1-3.86,2.24,33.21,33.21,0,0,0-3.89,2.3,93.65,93.65,0,0,0-8.51,6.6l.42.08a77.46,77.46,0,0,0-8.86,6.79C-2,109.92-.26,459.19-.26,459.19ZM427.26,238.69l1.94.57C429.59,240.39,430.05,241.47,427.26,238.69Z" style="opacity: 0.4;mix-blend-mode: multiply;fill: url(#Degradado_sin_nombre_7-3)"/>
              <path d="M256.38,535.34c.6-3.69-.08,7.19,1.28,6.5,0,0,1.34-1.35.5,4.38-.62,4.06-1.11,8.14-1.35,10.17l-.19-.54s-.07,2.1-.13,4.19-.07,4.21-.07,4.21l1.13-5.08c1.21,2.71,1.62,7.63,2.14,12.44.62,5.83,1.43,11.44,3.36,12.35l-.8-3.5-.76-3.52c2.66,4.47,8.25,21,10.24,16.51,0,0,603.61,19.64,946.06,4h0l2.81-.13c2.75.32,6.56,1,6.92.13,1.19-3,6.62-3.84,8-8.19.61-2.09,1.26-4.29,1.93-6.58.5-1.78,1-3.62,1.51-5.55.86-3.87,1.87-8,2.67-12.27,3.38-17.18,5.29-36.91,7.47-52.58-3.4,3-2.42-.64-1.58-5.18s2-10.08-.66-10.62c1.47-1.85,2.17-6.29,3.72-1.23a178,178,0,0,1-1.06-19.51c-.33-5.41-.8-10.24-3.75-15.42,1.29-2,2.72,3.11,3.4,1.36-.5-1.24-2-4.89-1.35-6.68s1.61,2.14,2.63,4.6c-1.19-8.21-3.4-12.47-5.54-14.73s-4.62-2.51-6.93-2.66a31,31,0,0,0-.71-10,20.55,20.55,0,0,0-4.29-7.44c.39-1.56.65-3.59,1.17-4s1.41.7,2.81,5.55c-.51-2.79-2.14-11.34-4.41-19.06s-5.11-14.58-6.86-14.27c.34-2-2.44-7.52-3.35-8.76-2.07-6-3.4-9.18-4.61-12.39s-2.67-6.27-5.35-11.89l.88,3.4c-3-1.36-4.23-3.58-5.45-6.55s-2.19-6.78-4.8-11.06l.53.05a76.12,76.12,0,0,0-4.55-10.72,27.05,27.05,0,0,0-2.62-4.05,27.85,27.85,0,0,1-2.61-4c-1.15-2-2.49-5.22-4.91-10.43l-1.58,2.5c-1.5.34-2.76-.64-3.93-2.46a27.55,27.55,0,0,1-1.74-3.3c-.61-1.24-1.23-2.64-1.88-4.13a85.46,85.46,0,0,0-4.51-9.43,31.4,31.4,0,0,0-6.33-8.31l.88,2.32c.46,1.15.86,2.34.86,2.34-3-2.2-4.54-7.31-6-12.67s-2.91-11-5.21-13.9c-.73-1.52,2.32,1.32,4.13,2.73-5.34-8.28-6.44-8.16-7.46-7.19s-2,2.7-7.32-2.07c-.54-3.21,5.89-1-.82-8.11-1.26-2.21-7.43-6.06-14.45-10.33-3.44-2.22-7.25-4.37-10.54-6.84a40.52,40.52,0,0,1-8.54-7.6c1.49,3,2.9,5.81-3.06,2.75a50,50,0,0,1-6.87-5.42c-2.4-2.17-5-4.4-7.67-6.61-5.34-4.28-11-8-16.25-8-1-1-1.23-1.53-1.11-1.88-1.87-.66-4.28-1.6-7-2.51s-5.55-2.07-8.44-2.9-5.67-1.62-8.07-2.14a19.53,19.53,0,0,0-5.76-.46c-1.68-5.7-13.77-8.6-24.91-10.13s-21.44-1.63-20.74-5.91c0,0-6-.7-12-1.26l-8.29-.5c-2.26-.17-3.77-.14-3.77-.14l.67-.85c-3.86-.27-7.11-.35-9.89-.29a56.78,56.78,0,0,0-7.06.86,35.1,35.1,0,0,0-9.22,3.13c-3.56-.36-1-1.32-.78-1.79a130.3,130.3,0,0,0-13.65.36,53.44,53.44,0,0,0-9.41,1.38c-5.59,1.23-10.59,3.4-19.15,7.54l-2.53-2.22c-1.14.7-3.72,1.27-7.29,1.89-3.53.78-8.06,1.57-13.06,2.69-2.47.63-5.08,1.32-7.74,2.08-1.33.39-2.69.76-4,1.21l-4,1.47c-2.68,1-5.36,2.12-7.94,3.34s-5,2.7-7.35,4.19c.07-.38.25-1,1.69-2.12A150.24,150.24,0,0,1,842,216.78c-3.11,1.41-6.23,2.84-9.35,4.19-1.55.69-3.11,1.33-4.61,2l-4.41,2.14c-2.88,1.42-5.64,2.82-8.15,4.25a60.77,60.77,0,0,0-6.59,4.43c-3.84,2.95-6.3,6.12-6.72,9.46,0,0-3,2.72-5.9,5.52l-5.78,5.63c17.23-11.25,0,5.35,7.91,1.84-6.22,5-18.54,9.81-10.93,3.46l1.54-.51c-.08-3.21-5.53.18-11.09,4.1s-11.16,8.4-12.07,6.85c-6.81,5.54-5.57,9-16.43,15s-11.63,12.08-20,19.21C725.18,308,725,315,714.27,321.24c-12.91,7.56-18.22,2.9-31,14.85,0,0-5.78,5.81-4.37,6.17l2.81.62s-.66.42-1.66,1L676.3,346c-2.69,1.58-5.51,2.94-5.51,2.94-3.35.68-5.27-.76,2.45-4.8-2.55.16-5.53,2.23-7.91,4.48s-4.25,4.43-4.18,4.9c-8.34,2.73-7.21.88-4.69-1.26s6.29-4.9,3.94-3.79l-1,.52c-.58.31-1.36.73-2.17,1.09l-3.21,1.52,1.67-.18c-2.34,1.88-3.45,3.36-5.29,4.68a28.67,28.67,0,0,1-9.46,4.34c-6.72,1.34-4.05-1.29-6.66-.7-.07-.28-1-.16-4,1,0,0-3.78,1-7.66,1.85l-5.29,1.19-2.44.47s1.74.48,3.46.89l3.47.8c-3.23,1.68-7,2.39-8.83,3s-1.93,1.12,2.11,2.14c-5.94-1.5-20.75.76-35.22,2.6s-28.48,3.46-31.92,2.86c-9.9,3.13-19.94,3.67-32.38,4,3.12.54,5.16,4.09-5.62,4.12,3.52-7.46-18.72-2.69-28.14-7.16,2.2,1.38-4.86,1.87-11.48,2.57-7.13.72-13.7,1.73-7.42,3.91-9.08-.1-.7-2.77-7.68-4.15-10.73,2.12-22.69,2.53-35.43,3.37s-26.36,2.14-39.73,6.14c-.15,1.05,4.66,1.35-.66,4.26,0,0-3.82-.34-7.68-.36l-5.35-.11c-1.47,0-2.44,0-2.44,0-2.56,1.18-3.27,3-4.67,4.46s-3.43,2.79-8.76,3.21c1.66.2,4.08.53.82,2.25A120.22,120.22,0,0,0,315.06,423,153.49,153.49,0,0,0,286.3,453.6l-5.91,8.64c-1.92,2.91-3.64,5.92-5.5,8.86l-1.37,2.21-1.34,2.44c-.93,1.62-1.73,3.28-2.52,4.94-1.6,3.31-3,6.68-4.25,10.07-5,13.58-8.08,27.4-11.07,41.25C256.73,524.55,256.52,529.63,256.38,535.34ZM1232.6,431.73c.73,1.88,1.33,3.79,1.81,5.21l.8,2.39c-.19,2-1.72.66-3.71-1.57.51,1,1,1.94,1.43,2.67-.07,2.31-.52,3.29-1.22,3.43q-.74-3.83-1.56-7.63l1.35,1.53c-.55-1.06-1.13-2.23-1.75-3.43-.26-1.17-.54-2.34-.81-3.51.43-2.68.79-5,.88-6.6ZM633.24,361.11h2.58C630.64,363.39,632,362.29,633.24,361.11Z" style="opacity: 0.2;mix-blend-mode: multiply;fill: url(#Degradado_sin_nombre_7-4)"/>
            </g>
          </g>
        </g>
      </g>
    </g>
  </g>
</svg>
