<svg xmlns="http://www.w3.org/2000/svg" viewBox="0 0 17.42 20.38">
  <title>icon-gift-white</title>
  <g id="Capa_2" data-name="Capa 2">
    <g id="Capa_1-2" data-name="Capa 1">
      <g>
        <path d="M15.68,11H10.1v9.4h5.58a.74.74,0,0,0,.73-.74V11.72A.74.74,0,0,0,15.68,11Z" style="fill: #fffdf8"/>
        <path d="M1,11.72v7.92a.74.74,0,0,0,.74.74H7.33V11H1.75A.74.74,0,0,0,1,11.72Z" style="fill: #fffdf8"/>
        <path d="M0,7.05V9.36a.74.74,0,0,0,.74.74H7.33V6.31H.74A.74.74,0,0,0,0,7.05Z" style="fill: #fffdf8"/>
        <path d="M16.68,6.31h-6.6l0,3.79h6.58a.74.74,0,0,0,.74-.74V7.05A.74.74,0,0,0,16.68,6.31Z" style="fill: #fffdf8"/>
        <path d="M3.06,5.47a1.07,1.07,0,0,0,.62.13h10a1.18,1.18,0,0,0,.69-.14,2.51,2.51,0,0,0,1.08-2.25,3.66,3.66,0,0,0-.67-2.12A2.7,2.7,0,0,0,12.56,0h-.23C10,.17,9.06,2.38,8.69,3.8,8.32,2.38,7.38.17,5.05,0H4.83A2.67,2.67,0,0,0,2.64,1.09,3.59,3.59,0,0,0,2,3.21,2.48,2.48,0,0,0,3.06,5.47Zm9.37-4.14h.13a1.33,1.33,0,0,1,1.12.56,2.23,2.23,0,0,1,.41,1.32c0,.41-.14,1.18-.68,1.18H9.92C10.16,3.32,10.81,1.44,12.43,1.33Zm-8.72.56a1.32,1.32,0,0,1,1.12-.56H5c1.61.11,2.27,2,2.51,3.06H4c-.53,0-.67-.77-.67-1.18A2.23,2.23,0,0,1,3.71,1.89Z" style="fill: #fffdf8"/>
      </g>
    </g>
  </g>
</svg>
