<svg xmlns="http://www.w3.org/2000/svg" width="60.9" height="71.3" viewBox="0 0 60.9 71.3"><title>icon-gift-grey</title><path d="M54.8,38.4H35.3V71.3H54.8a2.6,2.6,0,0,0,2.6-2.6V41A2.6,2.6,0,0,0,54.8,38.4Z" style="fill:#474c57"/><path d="M3.5,41V68.7a2.6,2.6,0,0,0,2.6,2.6H25.6V38.4H6.1A2.6,2.6,0,0,0,3.5,41Z" style="fill:#474c57"/><path d="M0,24.6v8.1a2.6,2.6,0,0,0,2.6,2.6h23V22H2.6A2.6,2.6,0,0,0,0,24.6Z" style="fill:#474c57"/><path d="M58.3,22H35.2V35.3h23a2.6,2.6,0,0,0,2.6-2.6V24.6A2.6,2.6,0,0,0,58.3,22Z" style="fill:#474c57"/><path d="M10.7,19.1a3.5,3.5,0,0,0,2.2.5H47.7a4.1,4.1,0,0,0,2.4-.5c2.3-1.4,3.8-4.2,3.8-7.9a12.6,12.6,0,0,0-2.4-7.4A9.3,9.3,0,0,0,43.9,0h-.8C35,.6,31.7,8.3,30.4,13.3,29.1,8.3,25.8.6,17.7,0h-.8A9.7,9.7,0,0,0,9.2,3.8a12.5,12.5,0,0,0-2.3,7.4C6.9,14.9,8.4,17.8,10.7,19.1ZM43.4,4.7h.5a4.6,4.6,0,0,1,3.9,2,7.9,7.9,0,0,1,1.5,4.6c0,1.4-.5,4.1-2.4,4.1H34.7C35.5,11.6,37.8,5.1,43.4,4.7ZM13,6.6a4.5,4.5,0,0,1,3.9-2h.4c5.7.4,8,6.9,8.8,10.6H13.9c-1.9,0-2.4-2.7-2.4-4.1A7.3,7.3,0,0,1,13,6.6Z" style="fill:#474c57"/></svg>