<svg xmlns="http://www.w3.org/2000/svg" viewBox="0 0 15.87 15.99">
  <title>icon-wsp-white</title>
  <g id="Capa_2" data-name="Capa 2">
    <g id="Capa_1-2" data-name="Capa 1">
      <path d="M11.73,9.56c-.19-.11-1.15-.62-1.33-.7S10.09,8.75,10,9s-.54.62-.66.75-.24.14-.44,0A5.87,5.87,0,0,1,7.29,8.69a6.1,6.1,0,0,1-1-1.42.29.29,0,0,1,.1-.4l.31-.34a1.36,1.36,0,0,0,.21-.32.36.36,0,0,0,0-.35c-.05-.1-.41-1.1-.56-1.5S6,4,5.87,4s-.25,0-.38,0A.71.71,0,0,0,5,4.21a2.19,2.19,0,0,0-.76,1.63,3.91,3.91,0,0,0,.73,2.09,8.35,8.35,0,0,0,3.29,3.13c2,.87,2,.6,2.37.58A2,2,0,0,0,12,10.75a1.57,1.57,0,0,0,.15-.94c0-.09-.17-.14-.37-.25ZM8.08,0A7.79,7.79,0,0,0,1.41,11.81L0,16l4.31-1.38A7.79,7.79,0,1,0,8.08,0Z" style="fill: #fffdf8;fill-rule: evenodd"/>
    </g>
  </g>
</svg>
