<svg xmlns="http://www.w3.org/2000/svg" width="105.7" height="112.9" viewBox="0 0 105.7 112.9"><title>icon-fest-white</title><polygon points="58.2 74.1 56.5 72.4 56.5 72.4 48.5 64.4 44.8 60.7 44.8 60.7 41 56.9 41 56.9 31.1 47 28 53.4 28 53.4 26.8 55.9 26.8 55.9 23.3 63.5 23.3 63.5 22.1 66 22.1 66 18.1 74.5 17.4 76 17.4 76 12.7 86 12.6 86.1 12.6 86.1 9 93.8 7.9 96.2 7.9 96.2 3.5 105.4 3.1 106.2 3.1 106.2 0 112.9 10.2 108.1 10.2 108.1 13.4 106.6 25.5 100.9 25.5 100.9 29.3 99.1 29.3 99.1 40.9 93.7 40.9 93.7 41.6 93.3 56.2 86.4 56.2 86.4 59.5 84.9 65.9 81.9 58.2 74.1" style="fill:#fffef8"/><polygon points="61.9 19 59.3 10 56.1 13.2 58.8 22.1 61.9 19" style="fill:#fffef8"/><polygon points="79.1 66.3 81.8 75.3 84.9 72.1 82.2 63.2 79.1 66.3" style="fill:#fffef8"/><polygon points="103.1 33.4 99.9 36.6 102.6 45.5 105.7 42.4 103.1 33.4" style="fill:#fffef8"/><polygon points="93.7 20.3 96.4 29.2 99.5 26.1 96.8 17.1 93.7 20.3" style="fill:#fffef8"/><path d="M44.2,29.7a3.3,3.3,0,1,0-4.6,0A3.4,3.4,0,0,0,44.2,29.7Z" style="fill:#fffef8"/><path d="M81,29.4a2.5,2.5,0,1,0,0-3.6A2.5,2.5,0,0,0,81,29.4Z" style="fill:#fffef8"/><path d="M75.6,3.8l.9.3c.2,0,.3.2.4.4l.3.8a.6.6,0,0,0,1.1.2l.5-.7a.9.9,0,0,1,.6-.3h.9a.6.6,0,0,0,.5-1l-.5-.7a.5.5,0,0,1-.1-.6l.3-.9a.7.7,0,0,0-.9-.8l-.8.3h-.6L77.5.1a.7.7,0,0,0-1.1.6v.9a.5.5,0,0,1-.3.5l-.7.5A.7.7,0,0,0,75.6,3.8Z" style="fill:#fffef8"/><path d="M98.1,55.2a1.3,1.3,0,0,1-.1-.6l.3-.8a.7.7,0,0,0-.8-.9l-.9.3a.7.7,0,0,1-.6-.1l-.7-.5a.6.6,0,0,0-1,.5V54a.5.5,0,0,1-.3.5l-.7.6a.6.6,0,0,0,.1,1.1l.9.3c.2.1.4.2.4.4l.3.9a.7.7,0,0,0,1.2.2l.5-.8.5-.2h.9a.7.7,0,0,0,.6-1.1Z" style="fill:#fffef8"/><path d="M74,17.8l1.1.3a1.2,1.2,0,0,1,.5.5l.3,1a.8.8,0,0,0,1.4.3l.6-.9a.9.9,0,0,1,.7-.3h1a.8.8,0,0,0,.7-1.3l-.7-.9a.8.8,0,0,1-.1-.7l.4-1a.8.8,0,0,0-1-1l-1,.4a1.1,1.1,0,0,1-.8-.2l-.8-.6A.8.8,0,0,0,75,14v1.1a.9.9,0,0,1-.3.7l-.9.6A.8.8,0,0,0,74,17.8Z" style="fill:#fffef8"/><path d="M93,12.3l1,.3a.9.9,0,0,1,.6.6l.3,1a.8.8,0,0,0,1.4.2l.6-.9a.7.7,0,0,1,.6-.3h1.1a.8.8,0,0,0,.7-1.2l-.7-.9a.9.9,0,0,1-.1-.7l.3-1a.7.7,0,0,0-1-1l-1,.3a.9.9,0,0,1-.7-.1l-.9-.7a.8.8,0,0,0-1.2.7V9.7a.7.7,0,0,1-.3.6l-.9.6A.8.8,0,0,0,93,12.3Z" style="fill:#fffef8"/><path d="M93.1,44.4l1.4,1.4A8.2,8.2,0,0,0,82.9,34.3l-30,30,1.4,1.4,30.1-30a5.8,5.8,0,0,1,4.3-1.8,6,6,0,0,1,4.4,1.8A6.2,6.2,0,0,1,93.1,44.4Z" style="fill:#fffef8"/><path d="M82,51.3a6,6,0,0,0-4.4,1.9L59.7,71.1l1.4,1.4L79,54.6a4.2,4.2,0,0,1,3-1.3,4.1,4.1,0,0,1,2.9,1.3,4,4,0,0,1,1.2,2.9,4.1,4.1,0,0,1-1.2,3l1.4,1.4a6,6,0,0,0,1.8-4.4,5.8,5.8,0,0,0-1.8-4.3A5.9,5.9,0,0,0,82,51.3Z" style="fill:#fffef8"/><path d="M61.7,26.7a6.2,6.2,0,1,1,8.7,8.7L47.2,58.6,48.6,60,71.8,36.8a8.1,8.1,0,0,0,0-11.5,8.2,8.2,0,0,0-11.6,0Z" style="fill:#fffef8"/><path d="M55.4,31a4.2,4.2,0,0,1,0,5.9l-15,14.9,1.5,1.4L56.8,38.3a6.2,6.2,0,0,0,0-8.7,6.3,6.3,0,0,0-8.8,0L49.4,31A4.2,4.2,0,0,1,55.4,31Z" style="fill:#fffef8"/></svg>