<svg xmlns="http://www.w3.org/2000/svg" width="76.7" height="77.3" viewBox="0 0 76.7 77.3"><title>icon-wsp-grey</title><path d="M56.7,46.2l-6.5-3.4c-.8-.3-1.5-.5-2.2.4s-2.6,3-3.1,3.7-1.2.6-2.1.1a25.3,25.3,0,0,1-7.6-5,34.4,34.4,0,0,1-5.1-6.9,1.3,1.3,0,0,1,.5-1.9,12.9,12.9,0,0,0,1.5-1.7,4.9,4.9,0,0,0,1-1.5,1.5,1.5,0,0,0,0-1.7c-.2-.5-1.9-5.3-2.7-7.2s-1.5-1.7-2.1-1.7l-1.8-.2a3.8,3.8,0,0,0-2.6,1.1,11.2,11.2,0,0,0-3.7,7.9c-.1,4.7,3.1,9.4,3.6,10.1S30,49.2,39.6,53.4s9.7,2.9,11.5,2.8,5.7-2.1,6.6-4.3a8.3,8.3,0,0,0,.8-4.5,6.1,6.1,0,0,0-1.8-1.2ZM39,0A37.6,37.6,0,0,0,1.4,37.6,38.1,38.1,0,0,0,6.8,57.1L0,77.3l20.8-6.7A37.3,37.3,0,0,0,39,75.3,37.7,37.7,0,1,0,39,0Z" style="fill:#474c57;fill-rule:evenodd"/></svg>