<svg xmlns="http://www.w3.org/2000/svg" viewBox="0 0 17.7 16.61">
  <title>icon-calendar-white</title>
  <g id="Capa_2" data-name="Capa 2">
    <g id="Capa_1-2" data-name="Capa 1">
      <g>
        <path d="M16.51,2.27h-.28V3a.88.88,0,0,1,.46.76.87.87,0,1,1-1.73,0A.88.88,0,0,1,15.42,3V2.27H9.27V3a.87.87,0,0,1-.41,1.63A.86.86,0,0,1,8,3.76.88.88,0,0,1,8.45,3V2.27H2.35V3a.87.87,0,1,1-1.28.76A.88.88,0,0,1,1.53,3V2.27H1.19A1.18,1.18,0,0,0,0,3.45v12a1.19,1.19,0,0,0,1.19,1.19H16.51a1.19,1.19,0,0,0,1.19-1.19v-12A1.18,1.18,0,0,0,16.51,2.27ZM2.87,14.73H1.42V13.28H2.87Zm0-2.55H1.42V10.73H2.87Zm0-2.55H1.42V8.18H2.87Zm0-2.55H1.42V5.62H2.87Zm2.24,7.65H3.66V13.28H5.11Zm0-2.55H3.66V10.73H5.11Zm0-2.55H3.66V8.18H5.11Zm0-2.55H3.66V5.62H5.11Zm2.23,7.65H5.89V13.28H7.34Zm0-2.55H5.89V10.73H7.34Zm0-2.55H5.89V8.18H7.34Zm0-2.55H5.89V5.62H7.34Zm2.24,7.65H8.12V13.28H9.58Zm0-2.55H8.12V10.73H9.58Zm0-2.55H8.12V8.18H9.58Zm0-2.55H8.12V5.62H9.58Zm2.23,7.65H10.36V13.28h1.45Zm0-2.55H10.36V10.73h1.45Zm0-2.55H10.36V8.18h1.45Zm0-2.55H10.36V5.62h1.45ZM14,14.73H12.59V13.28H14Zm0-2.55H12.59V10.73H14Zm0-2.55H12.59V8.18H14Zm0-2.55H12.59V5.62H14Zm2.24,7.65H14.83V13.28h1.45Zm0-2.55H14.83V10.73h1.45Zm0-2.55H14.83V8.18h1.45Zm0-2.55H14.83V5.62h1.45Z" style="fill: #fffdf8"/>
        <g>
          <rect x="1.5" width="0.82" height="3.99" rx="0.41" style="fill: #fffdf8"/>
          <rect x="8.42" width="0.82" height="3.99" rx="0.41" style="fill: #fffdf8"/>
          <rect x="15.38" width="0.82" height="3.99" rx="0.41" style="fill: #fffdf8"/>
        </g>
      </g>
    </g>
  </g>
</svg>
