<svg xmlns="http://www.w3.org/2000/svg" viewBox="0 0 269.66 143.13">
  <title>queen-1</title>
  <g id="Capa_2" data-name="Capa 2">
    <g id="Capa_1-2" data-name="Capa 1">
      <path d="M258.72,42.88a10.95,10.95,0,0,0-6.52,19.76L220.34,100.9,203.14,50a10.85,10.85,0,1,0-1.75-.08l-33.1,40.74L136.38,21.79A11,11,0,0,0,134.83,0c-.33,0-.67,0-1,.05a10.95,10.95,0,0,0-.54,21.74L101.37,90.62,68.27,49.88v0a10.93,10.93,0,1,0-1.74.1h0L49.33,100.9,17.46,62.64h0A10.94,10.94,0,1,0,11,64.78a10.62,10.62,0,0,0,2.89-.4L28.32,110l.47,16.74h-.07l.48,16.4H240.46V140.8l.88-30.81,14.48-45.62a10.26,10.26,0,0,0,2.9.41,11,11,0,0,0,0-21.9ZM134.83,101.37s-14.09-9.75-14.09-21.78,14.09-21.78,14.09-21.78,14.09,9.75,14.09,21.78S134.83,101.37,134.83,101.37Z" style="fill: #474c57"/>
    </g>
  </g>
</svg>
